<svg width="22" height="23" viewBox="0 0 22 23" fill="none" xmlns="http://www.w3.org/2000/svg">
<path d="M11.093 0.67701C5.19626 0.67701 0.416016 5.45726 0.416016 11.354C0.416016 17.2507 5.19626 22.031 11.093 22.031C16.9897 22.031 21.77 17.2507 21.77 11.354C21.7631 5.4601 16.9869 0.683874 11.093 0.67701Z" fill="#5243C2" fill-opacity="0.103693"/>
<path d="M17.2563 7.97295L11.166 16.2378C11.0207 16.4305 10.8041 16.5568 10.5649 16.5883C10.3256 16.6197 10.0837 16.5537 9.89362 16.4051L5.54453 12.928C5.16075 12.6208 5.0986 12.0608 5.40573 11.677C5.71285 11.2932 6.27293 11.231 6.65671 11.5382L10.2833 14.4396L15.8238 6.92037C16.0055 6.64775 16.3223 6.49702 16.6484 6.52803C16.9746 6.55904 17.2573 6.76678 17.3843 7.06876C17.5114 7.37074 17.4622 7.71811 17.2563 7.97295Z" fill="#001636"/>
</svg>
