<svg width="22" height="22" viewBox="0 0 22 22" fill="none" xmlns="http://www.w3.org/2000/svg">
<path d="M11.1858 0.26107C5.28904 0.26107 0.508789 5.04132 0.508789 10.9381C0.508789 16.8348 5.28904 21.615 11.1858 21.615C17.0825 21.615 21.8628 16.8348 21.8628 10.9381C21.8559 5.04416 17.0797 0.267934 11.1858 0.26107Z" fill="#192D4A"/>
<path d="M17.3491 7.55701L11.2587 15.8219C11.1135 16.0146 10.8969 16.1409 10.6576 16.1723C10.4184 16.2038 10.1765 16.1378 9.98639 15.9892L5.6373 12.512C5.25352 12.2049 5.19138 11.6448 5.4985 11.261C5.80562 10.8773 6.36571 10.8151 6.74949 11.1222L10.3761 14.0237L15.9166 6.50444C16.0982 6.23181 16.415 6.08108 16.7412 6.11209C17.0673 6.1431 17.3501 6.35084 17.4771 6.65282C17.6041 6.9548 17.555 7.30217 17.3491 7.55701Z" fill="white"/>
</svg>
